<svg width="776" height="561" viewBox="0 0 776 561" fill="none" xmlns="http://www.w3.org/2000/svg">
<path d="M0.0150757 560.721V0.0252686H775.719V560.721H0.0150757Z" fill="white"/>
<path d="M740.972 531.388H34.7627V29.3587H740.972V531.388Z" fill="#263B78"/>
<path d="M34.7627 124.595C75.6773 177.515 109.171 194.931 150.703 194.931C231.087 194.931 229.747 143.352 269.268 143.352C302.092 143.352 291.375 154.069 338.935 135.313C386.495 116.557 464.2 128.615 466.209 186.223C468.219 243.832 428.027 267.947 392.524 267.947C357.021 267.947 340.275 235.123 346.973 223.736C353.672 212.348 374.437 236.463 365.729 207.659C357.021 178.855 302.761 169.476 256.541 217.036C210.32 264.597 153.381 282.603 108.5 278.289C63.62 273.975 34.7627 238.472 34.7627 238.472V124.595Z" fill="#69B3E6"/>
<path d="M90.0867 79.0626C92.4693 82.824 95.112 86.4186 98.0147 89.7973C100.664 92.8826 104.213 97.2 108.575 97.156C110.555 97.136 112.929 95.2973 112.637 93.0933C112.079 88.8786 108.777 86.444 105.908 83.5333C103.087 80.6693 100.512 77.6053 98.1813 74.3306C94.744 69.5 86.8067 73.884 90.0867 79.0626Z" fill="#3F5BB2"/>
<path d="M138.384 79.792C145.805 82.332 158.755 84.3453 164.745 77.8107C166.231 76.1893 165.924 72.632 163.283 72.2733C159.573 71.7706 156.215 72.9373 152.528 73.2827C148.425 73.668 144.476 73.128 140.544 71.9573C135.491 70.4547 133.477 78.1133 138.384 79.792Z" fill="#3F5BB2"/>
<path d="M529.035 39.7853C526.783 46.0813 524.829 52.4613 523.323 58.98C521.991 64.7413 520.337 70.9053 522.303 76.6626C523.595 80.4506 528.687 81.3387 530.869 77.7827C533.979 72.7173 534.007 66.6399 535.003 60.9039C536.077 54.7213 537.544 48.6386 539.28 42.6093C541.195 35.96 531.309 33.4227 529.035 39.7853Z" fill="#3F5BB2"/>
<path d="M494.252 42.5787C493.467 51.4013 490.516 63.9427 496.407 71.3547C498.097 73.4827 502.415 73.472 504.096 71.3547C509.987 63.9427 507.036 51.4013 506.252 42.5787C505.565 34.872 494.939 34.856 494.252 42.5787Z" fill="#3F5BB2"/>
<path d="M525.347 109.496C525.04 119.624 525.463 136.532 533.768 143.704C537.007 146.5 542.032 144.652 542.197 140.213C542.381 135.256 539.775 130.607 538.571 125.831C537.215 120.451 536.357 115.043 536.096 109.496C535.772 102.604 525.556 102.551 525.347 109.496Z" fill="#3F5BB2"/>
<path d="M448.572 109.479C450.911 112.976 453.248 116.473 455.587 119.971C457.739 123.189 460.273 126.785 464.141 127.936C466.561 128.656 468.665 126.704 468.809 124.38C469.043 120.619 466.493 116.987 464.371 114.068C462.019 110.835 459.667 107.601 457.315 104.368C453.553 99.1974 444.897 103.983 448.572 109.479Z" fill="#3F5BB2"/>
<path d="M454.772 198.727C454.828 203.36 454.291 207.784 452.904 212.215C451.651 216.219 449.02 219.961 449.412 224.269C449.716 227.616 452.691 229.241 455.712 227.885C464.764 223.823 465.939 207.228 465.647 198.727C465.407 191.756 454.687 191.7 454.772 198.727Z" fill="#3F5BB2"/>
<path d="M535.721 183.763C537.063 187.064 538.477 190.481 540.58 193.383C542.515 196.051 545.027 199.864 548.473 200.501C550.928 200.955 553.489 199.441 553.457 196.704C553.421 193.617 551.284 191.152 549.877 188.521C548.536 186.015 547.124 183.561 546.088 180.904C545.033 178.201 542.481 176.324 539.476 177.151C536.928 177.851 534.621 181.057 535.721 183.763Z" fill="#3F5BB2"/>
<path d="M242.915 119.559C253.363 115.599 265.645 114.729 274.905 108.709C279.239 105.893 278.363 99.592 273.503 97.972C266.791 95.7333 261.701 96.704 254.972 98.6827C248.772 100.507 242.949 103.103 237.28 106.193C230.175 110.069 235.035 122.547 242.915 119.559Z" fill="#3F5BB2"/>
<path d="M264.012 217.927C262.385 221.233 260.44 224.665 258.069 227.499C256.909 228.887 255.596 230.1 254.279 231.331C252.632 232.869 251.521 234.644 250.232 236.479C247.601 240.223 251.936 243.911 255.525 243.365C265.332 241.873 272.4 231.505 275.321 222.695C277.504 216.112 267.127 211.601 264.012 217.927Z" fill="#3F5BB2"/>
<path d="M319.088 74.7974C324.307 79.7814 330.371 83.9293 337.344 86.02C343.676 87.9173 352.491 88.8014 356.109 82.0054C357.211 79.94 356.733 77.9907 355.367 76.2494C351.856 71.776 346.38 72.44 341.321 71.592C335.789 70.6654 330.76 68.8667 326.132 65.668C320.665 61.8907 314.367 70.288 319.088 74.7974Z" fill="#3F5BB2"/>
<path d="M389.595 34.512C379.583 40.2373 362.315 56.1413 368.775 69.1893C370.24 72.1493 373.968 71.8827 376.137 70.1387C380.199 66.872 381.253 60.6147 383.677 56.1387C386.408 51.0987 390.133 46.7493 394.768 43.3627C399.98 39.552 395.453 31.1613 389.595 34.512Z" fill="#3F5BB2"/>
<path d="M375.432 101.979C377.424 107.771 380.884 112.503 385.839 116.107C390.149 119.241 398.511 122.24 402.831 117.811C404.405 116.196 404.807 113.565 403.632 111.6C401.668 108.317 396.979 107.395 393.793 105.428C391.179 103.813 388.955 101.465 387.847 98.556C386.611 95.3094 383.508 93.076 379.928 94.06C376.731 94.9387 374.296 98.6774 375.432 101.979Z" fill="#3F5BB2"/>
<path d="M446.416 41.9573C449.685 45.5693 452.567 49.424 455.027 53.6333C457.312 57.5453 458.608 62.6693 462.063 65.6693C465.396 68.5653 469.82 66.448 470.277 62.2666C470.845 57.0826 467.029 51.4693 464.405 47.2253C461.493 42.5146 458.053 38.14 454.283 34.0907C449.383 28.8267 441.628 36.6667 446.416 41.9573Z" fill="#3F5BB2"/>
<path d="M740.972 215.296C718.749 216.636 691.284 242.76 664.489 240.081C637.695 237.401 608.221 245.359 570.039 286.596C531.856 327.833 489.655 286.972 452.143 304.388C414.629 321.804 403.912 333.192 373.768 329.173C343.624 325.153 318.169 331.852 289.364 349.939C260.56 368.025 202.952 359.987 189.555 402.188V436.352H740.972V215.296Z" fill="#69B3E6"/>
<path d="M34.2693 336.872C73.5067 312.184 91.5293 376.196 131.4 347.288C138.099 340.891 139.439 379.073 98.576 373.715C57.7147 368.356 34.2693 380.413 34.2693 380.413V336.872Z" fill="#B3E7F8"/>
<path d="M730.203 209.316C720.063 210.492 701.308 214.94 700.507 227.591C700.364 229.849 702.253 232.176 704.407 232.713C714.221 235.159 723.553 226.291 732.031 222.821C739.447 220.645 738.051 209.136 730.203 209.316Z" fill="#F6F462"/>
<path d="M665.999 243.549C653.549 246.559 634.168 255.441 637.571 271.023C638.243 272.872 639.795 273.705 641.723 273.38C647.424 272.419 649.448 266.481 653.535 263.081C658.113 259.273 663.381 256.253 668.889 254.036C675.235 251.48 672.981 241.883 665.999 243.549Z" fill="#F6F462"/>
<path d="M595.86 299.099C592.52 302.231 588.699 304.939 584.511 306.835C581.752 308.58 565.343 312.26 571.928 316.731C582.333 319.329 593.669 310.984 600.632 303.872C603.681 300.757 599.027 296.128 595.86 299.099Z" fill="#F6F462"/>
<path d="M533.964 316.481C528.369 316.785 522.391 317.407 516.821 316.857C512.527 316.435 508.311 314.955 504.931 318.355C504.159 319.132 504.121 320.499 504.931 321.272C511.461 327.517 525.795 324.685 533.964 324.105C538.817 323.761 538.893 316.213 533.964 316.481Z" fill="#F6F462"/>
<path d="M316.543 348.779C318.38 347.116 320.124 345.027 322.313 343.816C327.456 340.548 350.507 342.351 344.629 332.032C340.128 326.868 331.12 327.928 325.091 329.456C317.567 331.364 314.125 335.968 309.295 341.531C304.983 346.499 311.615 353.239 316.543 348.779Z" fill="#F6F462"/>
<path d="M203.517 384.819C206.609 382.505 210.407 380.979 214.056 379.743C217.916 378.435 222.476 378.304 225.412 375.241C227.273 373.301 227.144 369.581 224.515 368.272C216.224 364.145 203.708 371.515 197.609 377.163C193.637 380.843 199.024 388.181 203.517 384.819Z" fill="#F6F462"/>
<path d="M383.541 344.188C395.111 351.056 423.972 352.315 423.927 332.824C421.963 322.201 410.749 331.081 405.303 333.177C400.089 334.84 393.457 334.409 388.212 333.107C381.595 331.464 377.539 340.624 383.541 344.188Z" fill="#F6F462"/>
<path d="M341.989 398.699C357.884 400.164 381.909 402.912 394.735 391.796C397.483 388.921 396.505 383.409 392.279 382.497C384.604 380.841 376.012 384.235 368.453 385.741C359.708 387.487 350.919 389.032 341.989 389.073C335.661 389.103 335.963 398.048 341.989 398.699Z" fill="#9BDFF6"/>
<path d="M441.577 363.447C446.841 359.685 452.313 356.364 457.767 352.901C462.625 349.816 468.669 347.051 471.279 341.66C472.696 338.733 470.956 335.703 467.717 335.453C454.992 335.904 444.955 348.104 435.443 355.495C431.199 359.252 436.867 366.813 441.577 363.447Z" fill="#9BDFF6"/>
<path d="M487.867 300.056C495.453 304.105 503.579 307.543 512.148 308.699C518.011 309.491 530.673 310.827 532.513 302.744C534.109 295.729 525.232 294.357 520.276 293.936C510.833 293.132 501.569 291.995 492.587 288.86C486.029 286.572 481.776 296.803 487.867 300.056Z" fill="#9BDFF6"/>
<path d="M609.849 246.731C601.957 251.329 594.248 256.093 587.235 261.975C580.931 267.261 573.387 273.703 572.515 282.317C572.105 286.352 576.456 288.339 579.713 287.801C587.232 286.563 593.563 278.611 598.86 273.6C604.976 267.815 610.873 261.828 617.272 256.351C622.636 251.759 615.747 243.295 609.849 246.731Z" fill="#9BDFF6"/>
<path d="M673.533 302.664C681.139 296.969 689.568 293.101 698.529 290.04C705.129 287.785 715.575 285.657 711.273 276.373C710.128 273.901 707.285 272.86 704.795 272.657C689.341 271.4 674.652 279.752 663.46 289.608C656.488 295.748 665.921 308.364 673.533 302.664Z" fill="#9BDFF6"/>
<path d="M720.399 259.693C726.432 256.561 732.488 253.461 738.009 249.46C751.096 239.632 741.92 229.328 728.971 237.667C723.105 241.049 717.852 245.34 712.523 249.485C706.46 254.199 714.173 262.925 720.399 259.693Z" fill="#9BDFF6"/>
<path d="M216.1 384.791C224.641 383.717 234.013 382.439 241.601 378.017C246.552 375.132 256.511 368.117 254.325 361.219C252.044 354.017 243.349 358.221 238.701 360.027C230.457 363.229 222.664 367.456 214.056 369.691C205.932 371.8 207.308 385.897 216.1 384.791Z" fill="#9BDFF6"/>
<path d="M248.492 411.579C256.205 406.467 265.54 400.667 268.571 391.432C269.312 388.281 266.681 386.128 263.727 386.588C255.38 388.708 248.848 395.587 241.993 400.461C235.388 405.223 241.488 416.223 248.492 411.579Z" fill="#9BDFF6"/>
<path d="M36.588 367.193C45.8014 352.315 69.9347 363.512 68.9093 350.984C67.2053 341.565 53.2467 341.185 46.1093 343.223C37.0547 345.808 29.8454 352.507 25.9027 360.947C22.5587 368.104 32.168 373.944 36.588 367.193Z" fill="#9BDFF6"/>
<path d="M290.496 375.543C298.883 370.64 308.933 370.708 318.217 372.58C321.448 373.345 323.693 374.747 326.975 373.487C328.492 372.903 330.101 371.465 329.911 369.629C329.041 361.203 316.789 357.435 309.5 357.087C299.732 356.619 290.877 360.273 283.301 366.217C277.889 370.463 284.808 378.787 290.496 375.543Z" fill="#9BDFF6"/>
<path d="M345.643 339.719C354.984 347.752 375.26 361.871 387.807 353.676C396.105 345.121 376.911 341.939 371.439 340.352C364.561 338.256 358.395 334.927 352.611 330.688C347.373 326.851 340.704 335.472 345.643 339.719Z" fill="#8CDAF5"/>
<path d="M334.519 383.179C348.159 389.359 372.721 395.644 384.912 383.333C392.208 369.141 368.575 375.623 361.585 375.623C353.875 375.863 346.472 374.588 339.191 372.099C332.78 369.907 328.224 380.327 334.519 383.179Z" fill="#8CDAF5"/>
<path d="M655.351 295.156C645.972 306.359 632.84 314.28 618.493 317.156C613.779 318.244 607.713 318.356 603.708 321.087C600.815 323.059 599.217 327.987 602.481 330.608C622.853 343.588 656.613 323.019 667.523 304.548C672.245 297.257 661.141 288.436 655.351 295.156Z" fill="#8CDAF5"/>
<path d="M78.9813 356.231C107.395 383.156 140.012 365.147 122.639 354.604C116.776 352.849 110.087 354.571 103.981 353.711C97.328 352.772 91.6053 350.9 86.1013 347.004C80.636 343.136 74.1467 351.724 78.9813 356.231Z" fill="#6EB7E8"/>
<path d="M455.911 352.725C437.969 369.529 413.465 358.081 399.861 369.445C397.761 371.461 397.845 375.017 399.861 377.048C408.501 385.748 426.939 382.548 437.612 380.021C448.409 377.467 458.84 371.313 466.429 363.243C473.007 356.249 462.951 346.229 455.911 352.725Z" fill="#8CDAF5"/>
<path d="M636.211 275.133C625.185 285.559 614.036 296.132 600.119 302.623C595.867 304.784 589.993 306.755 586.904 310.408C584.536 313.208 584.092 318.725 588.207 320.519C610.124 327.904 641.956 302.628 647.911 281.945C650.067 274.859 641.201 270.781 636.211 275.133Z" fill="#6EB7E8"/>
<path d="M520.467 345.964C534.089 356.176 567.501 356.321 570.579 335.473C570.712 333.084 568.636 330.1 566.173 329.688C559.131 328.509 553.124 332.468 546.403 333.888C539.595 335.325 532.78 334.581 526.341 332.028C517.956 328.701 513.613 341.463 520.467 345.964Z" fill="#8CDAF5"/>
<path d="M369.079 414.052C340.275 387.257 339.604 373.191 306.111 377.209C272.617 381.229 281.327 401.325 223.717 405.344C166.109 409.364 119.219 385.919 85.0547 402.665C50.892 419.412 50.1173 426.78 34.7627 426.78V433.479H369.079V414.052Z" fill="#202653"/>
<path d="M740.972 272.512C715.517 281.889 686.595 286.108 686.595 292.807C686.595 299.505 717.409 294.147 713.055 298.836C708.701 303.524 681.907 298.165 669.179 310.223C656.451 322.281 683.916 330.319 634.345 334.339C584.776 338.357 569.368 328.309 549.272 349.745C529.176 371.181 549.272 430.129 549.272 430.129H740.972V272.512Z" fill="#2B3B8F"/>
<path d="M302.092 399.316C359.031 406.015 432.716 393.956 474.248 361.803C515.779 329.649 566.415 365.491 575.793 382.907L574.728 430.129H300.083L302.092 399.316Z" fill="#2F47A3"/>
<path d="M740.972 340.361C703.517 328.309 682.576 369.172 646.403 367.832C610.231 366.492 640.832 371.688 600.852 379.889C574.728 385.248 543.913 379.881 488.315 405.005C432.716 430.129 385.028 435.171 385.028 435.171L740.972 433.479V340.361Z" fill="#3B51AB"/>
<path d="M360.175 433.479H740.972V531.388H360.175V433.479Z" fill="#16242D"/>
<path d="M740.972 395.953C724.931 391.807 718.815 409.431 708.448 407.357C698.081 405.284 685.641 396.472 673.719 407.357C661.797 418.241 658.389 394.361 640.656 405.005C622.923 415.651 627.588 398.545 609.447 407.875C591.305 417.205 587.437 396.224 567.461 410.272C547.485 424.321 523.167 414.373 502.152 425.499C493.34 430.164 471.047 425.648 462.759 428.091C454.471 430.532 433.717 433.072 423.884 431.617C414.051 430.163 407.816 423.425 394.857 422.907C381.899 422.388 378.271 411.195 359.611 413.681C340.951 416.168 333.695 404.247 322.291 409.948C322.291 409.948 334.212 429.127 355.983 424.461C377.752 419.797 385.009 441.567 397.967 441.567C410.925 441.567 440.989 437.939 457.057 447.787C473.125 457.635 487.639 437.42 502.671 448.823C517.701 460.227 583.529 477.332 605.817 475.259C628.107 473.185 647.284 473.703 666.463 477.849C685.641 481.996 740.972 475.776 740.972 475.776V395.953Z" fill="#245672"/>
<path d="M698.832 487.285C689.031 487.285 684.071 486.657 681.636 486.131C669.04 483.408 656.145 482.084 642.213 482.084C634.42 482.084 626.285 482.488 617.343 483.32C616.481 483.4 615.461 483.44 614.309 483.44C590.219 483.44 533.531 467.596 522.56 459.272C521.364 458.367 520.133 457.56 518.871 456.856C519.396 456.624 519.907 456.377 520.404 456.113C527.904 452.143 536.844 451.635 546.308 451.099C559.08 450.375 573.556 449.553 587.001 440.099C588.831 438.812 591.397 437.277 593.233 437.277C594.479 437.277 596.208 437.993 598.396 438.899C601.937 440.364 606.788 442.371 612.883 442.371C617.779 442.369 622.583 441.123 627.571 438.556C629.577 437.525 630.748 437.167 631.276 437.045C631.508 437.163 631.792 437.316 632.027 437.441C634.257 438.639 637.992 440.644 643.332 440.644C648.272 440.644 653.4 438.947 659.469 435.304C660.961 434.408 661.824 434.212 662.031 434.212C662.644 434.319 664.489 435.655 665.591 436.453C668.988 438.913 673.639 442.283 680.208 442.283C680.209 442.283 680.211 442.283 680.213 442.283C685.26 442.281 690.049 440.244 694.448 436.229C696.441 434.408 697.927 434.035 699.541 434.035C702.32 434.035 705.849 435.227 709.587 436.488C712.507 437.473 715.527 438.493 718.731 439.133C720.071 439.403 721.432 439.537 722.78 439.537C730.8 439.536 736.815 434.916 740.972 431.543C741.04 431.487 740.903 431.431 740.972 431.375V484.935C729.999 485.939 713.133 487.285 698.837 487.285C698.835 487.285 698.835 487.285 698.832 487.285Z" fill="#2A6787"/>
<path d="M211.368 416.687C247.133 415.132 261.688 386.577 302.092 399.316C342.496 412.053 353.667 419.683 369.079 424.905C384.491 430.129 387.707 437.297 387.707 437.297V531.388H211.235L211.368 416.687Z" fill="#6ABBB7"/>
<path d="M34.7627 408.828C45.0027 402.068 61.0974 405.565 71.4214 412.196C81.7454 418.828 90.448 428.063 101.656 433.056C111.429 437.409 122.917 438.455 131.099 445.349C135.761 449.279 138.868 454.776 141.009 460.485C149.393 482.851 148.74 508.44 155.367 531.388H34.7627V408.828Z" fill="#2B3B8F"/>
<path d="M119.497 471.839C110.589 465.789 97.072 468.099 90.6787 476.763C88.576 479.612 87.1867 482.993 84.72 485.535C79.3693 491.045 70.6547 491.145 63.724 494.457C53.4427 499.368 53.3253 520.541 56.816 531.388H130.004V481.337L119.497 471.839Z" fill="#202653"/>
<path d="M295.104 446.476C310.096 452.492 327.241 448.548 343.036 451.933C353.295 454.132 362.94 459.415 373.425 459.749C384.397 460.101 394.699 455.008 405.28 452.084C410.148 450.74 415.261 449.844 420.243 450.677C424.251 451.348 427.995 453.109 431.948 454.055C444.189 456.983 456.707 451.909 468.915 448.844C481.123 445.779 496.051 445.544 504.073 455.243C506.717 458.439 508.373 462.499 511.629 465.067C518.525 470.505 528.456 466.841 537.235 466.616C545.132 466.413 553.067 469.396 558.875 474.751C563.98 479.457 567.563 485.939 573.624 489.324C579.473 492.591 586.545 492.38 593.148 493.51C599.752 494.64 606.976 498.173 608.347 504.731C614.665 503.569 622.024 502.681 626.756 507.027C628.76 508.865 629.959 511.397 631.109 513.861C633.825 519.68 636.543 525.569 639.259 531.388H295.455L295.104 446.476Z" fill="#324AA6"/>
<path d="M348.96 462.333L353.32 445.2L373.252 443.643L378.235 439.283L385.028 435.171L393.805 448.003L405.951 447.38L412.179 369.213L422.456 445.2V482.883H348.96V462.333Z" fill="#3B51AB"/>
<path d="M498.757 473.075C497.377 475.708 495.124 476.432 493.745 473.799C491.112 468.773 491.337 467.36 493.971 462.333C495.351 459.7 497.333 460.813 499.688 462.628C504.055 465.991 501.391 468.049 498.757 473.075Z" fill="#F6F462"/>
<path d="M566.804 480.731C565.424 483.364 563.171 484.088 561.791 481.455C559.157 476.429 559.384 475.016 562.017 469.989C563.396 467.356 565.38 468.469 567.735 470.284C572.101 473.647 569.437 475.704 566.804 480.731Z" fill="#F6F462"/>
<path d="M540.708 460.945C540.001 462.296 539.3 463.02 538.592 461.669C537.241 459.092 537.467 458.309 538.817 455.732C539.525 454.381 540.448 455.057 541.632 456.019C543.728 457.723 542.059 458.368 540.708 460.945Z" fill="#F6F462"/>
<path d="M595.212 485.185C594.504 486.537 593.803 487.261 593.095 485.911C591.744 483.332 591.969 482.551 593.32 479.972C594.028 478.621 594.952 479.297 596.135 480.26C598.231 481.964 596.563 482.608 595.212 485.185Z" fill="#F6F462"/>
<path d="M345.488 475.056C344.108 477.689 341.855 478.415 340.476 475.781C337.843 470.755 338.068 469.341 340.701 464.316C342.081 461.683 344.064 462.796 346.419 464.609C350.785 467.972 348.121 470.031 345.488 475.056Z" fill="#F6F462"/>
<path d="M421.299 517.727C419.919 520.36 417.665 521.084 416.285 518.451C413.652 513.425 413.879 512.012 416.512 506.985C417.891 504.352 419.875 505.465 422.229 507.28C426.596 510.643 423.932 512.702 421.299 517.727Z" fill="#F6F462"/>
<path d="M512.831 522.244H445.233L456.593 503.073H525.255L512.831 522.244Z" fill="#3B51AB"/>
<path d="M381.956 514.255H314.359L325.72 495.085H394.381L381.956 514.255Z" fill="#3B51AB"/>
<path d="M562.879 225.387C564.333 230.112 564.943 234.621 565.087 239.549C565.209 243.784 565.213 248.028 567.317 251.816C568.597 254.12 571.388 254.025 573.207 252.575C581.617 245.871 578.165 230.6 575.295 221.964C572.699 214.157 560.424 217.409 562.879 225.387Z" fill="#3F5BB2"/>
<path d="M568.24 180.568C570.755 185.704 573.993 190.459 577.864 194.676C581.264 198.384 587.143 204.291 592.591 202.52C594.545 201.885 596.448 199.927 596.261 197.699C595.824 192.456 590.689 189.728 587.116 186.343C583.512 182.927 580.609 179.083 578.169 174.764C574.493 168.256 565.015 173.981 568.24 180.568Z" fill="#3F5BB2"/>
<path d="M69.892 331.756C73.8747 334.109 77.6867 336.707 81.1973 339.727C84.3347 342.425 87.4667 347.021 91.6493 347.859C94.0973 348.349 97.316 346.705 97.0293 343.761C96.528 338.624 91.8493 335.031 88.0947 331.856C84.0547 328.44 79.7453 325.38 75.192 322.689C69.3613 319.244 64.0733 328.317 69.892 331.756Z" fill="#3F5BB2"/>
<path d="M47.6707 393.107C57.7694 398.369 73.7147 404.095 83.4227 395.415C85.4427 393.611 84.92 389.889 82.5507 388.643C77.8787 386.184 73.3707 386.245 68.2547 385.771C62.7974 385.264 57.5107 383.84 52.4387 381.797C45.9294 379.176 41.512 389.897 47.6707 393.107Z" fill="#3F5BB2"/>
<path d="M185.253 370.911C186.769 370.564 188.339 370.315 189.772 369.711C191.173 369.119 192.543 368.443 193.848 367.661C199.292 364.401 197.067 355.577 190.587 355.62C189.057 355.631 187.533 355.775 186.019 355.977C184.467 356.187 182.984 356.797 181.499 357.291C178 358.455 175.348 362.216 176.567 365.979C177.787 369.751 181.392 371.795 185.253 370.911Z" fill="#3F5BB2"/>
<path d="M228.269 354.784C234.349 353.891 240.416 353.128 246.468 352.043C251.776 351.091 256.448 349.775 259.477 344.957C260.34 343.585 260.092 341.444 258.881 340.337C250.065 332.28 234.453 339.428 225.079 343.213C217.872 346.124 220.597 355.913 228.269 354.784Z" fill="#3F5BB2"/>
<path d="M257.852 49.3386C261.095 50.0706 263.724 53.0893 265.227 55.9146C267.204 59.6306 269.08 65.5507 273.092 67.424C275.727 68.6533 278.437 68.0613 280.104 65.5853C282.243 62.404 281.328 58.1053 280.615 54.5426C279.959 51.268 278.4 48.3706 276.413 45.7C272.304 40.1773 266.44 36.888 259.431 37.6747C256.496 38.004 253.972 39.68 253.599 42.824C253.267 45.616 254.923 48.676 257.852 49.3386Z" fill="#4F80CA"/>
<path d="M491.337 216.8C494.901 215.159 498.468 214.705 502.352 214.593C506.128 214.484 510.14 215.373 513.425 213.175C515.691 211.659 517.019 208.404 515.332 205.907C509.032 196.583 493.219 202.325 485.532 206.869C479.048 210.704 484.724 219.845 491.337 216.8Z" fill="#4F80CA"/>
<path d="M52.2014 83.6706C57.4454 93.2066 65.6267 109.123 78.3787 107.677C79.7627 107.383 80.9214 105.829 80.8574 104.423C80.596 98.7839 76.316 95.2853 72.836 91.3573C68.992 87.0186 65.556 82.5906 62.6707 77.5506C58.7507 70.7053 48.8227 76.7226 52.2014 83.6706Z" fill="#274491"/>
<path d="M114.433 69.2399C120.564 68.2893 115.085 59.4173 110.768 64.8186C105.869 71.8346 119.908 83.2773 124.487 86.8559C131.703 92.4946 144.216 101.017 153.309 95.1906C160.152 88.0413 139.617 82.54 135.239 79.8493C128.841 76.4626 123.519 71.5133 118.495 66.372C117.197 64.8813 116.476 65.5946 116.328 68.5093C115.308 68.6413 114.288 68.7733 113.268 68.9053C113.637 69.1213 114.004 69.1999 114.433 69.2399Z" fill="#274491"/>
<path d="M106.28 124.497C112.055 130.96 121.601 141.015 131.131 139.849C133.208 139.595 134.963 137.511 133.667 135.429C128.232 128.005 118.864 124.953 113.175 117.603C108.877 112.983 102.12 119.84 106.28 124.497Z" fill="#274491"/>
<path d="M93.524 149.128C100.1 158.54 113.344 171.891 126.185 167.387C128.207 166.677 128.92 164.308 127.427 162.685C120 155.493 109.049 152.549 103.347 143.387C99.116 137.533 89.2987 143.08 93.524 149.128Z" fill="#274491"/>
<path d="M253.999 132.131C258.775 130.767 263.719 130.131 268.681 129.965C273.103 129.819 277.908 130.165 282.135 128.839C285.888 127.66 286.505 122.717 283.211 120.613C273.547 114.443 259.776 119.272 250.339 123.449C245.36 125.652 248.921 133.581 253.999 132.131Z" fill="#274491"/>
<path d="M298.671 106.213C308.224 111.643 318.717 115.447 329.825 113.795C338.212 112.547 349.653 107.371 347.711 97.14C344.156 90.148 333.413 98.1467 327.937 99.0533C320.024 101.007 311.936 99.3613 304.728 95.8507C297.859 92.5067 291.877 102.352 298.671 106.213Z" fill="#274491"/>
<path d="M314.881 145.029C328.075 146.04 354.867 142.988 356.993 126.091C357.349 123.259 354.452 121.501 352.119 121.215C345.655 120.423 339.584 125.683 333.945 128.181C327.503 131.037 320.397 133.261 313.419 134.227C306.923 135.124 309.12 144.589 314.881 145.029Z" fill="#274491"/>
<path d="M388.777 129.552C397.528 131.605 407.175 135.799 416.177 133.428C419.805 132.093 420.296 127.767 417.208 125.545C409.628 121.108 399.899 121.817 391.569 119.427C384.999 118.028 382.232 127.683 388.777 129.552Z" fill="#274491"/>
<path d="M456.309 157.535C459.604 160.996 468.884 187.112 474.411 177.936C475.799 169.2 468.791 159.853 464.296 152.867C461.091 147.884 453.172 152.432 456.309 157.535Z" fill="#274491"/>
<path d="M513.028 100.432C512.86 111.789 513.344 129.484 523.637 136.673C526.741 138.841 530.359 135.872 530.596 132.68C530.991 127.393 528.255 122.44 526.568 117.539C524.672 112.033 523.157 106.211 522.404 100.432C521.648 94.6387 513.12 94.204 513.028 100.432Z" fill="#274491"/>
<path d="M555.785 179.909C559.885 187.431 565.153 197.992 574.64 198.868C579.031 198.813 581.513 194.876 580.759 190.837C578.403 183.771 570.455 180.024 567.227 173.221C562.7 165.847 552.207 172.281 555.785 179.909Z" fill="#274491"/>
<path d="M471.921 233.979C479.161 221.085 490.925 221.693 502.437 216.276C505.421 214.355 505.057 210.704 502.437 208.719C495.8 203.689 485.869 206.776 479.305 210.387C471.979 214.416 466.093 220.957 462.424 228.427C459.327 234.728 468.216 240.101 471.921 233.979Z" fill="#274491"/>
<path d="M499.436 196.075C509.953 195.521 518.167 202.444 527.517 205.819C530.451 206.583 532.957 203.923 532.285 201.051C529.176 187.777 510.896 184.023 499.436 185.449C492.849 186.269 492.393 195.996 499.436 196.075Z" fill="#274491"/>
<path d="M465.529 70.6067C470.153 75.6293 474.4 80.9147 478.157 86.6213C480.752 90.8947 491.332 107.867 495.021 96.9654C494.731 83.0427 481.921 72.612 473.397 62.7387C468.297 57.6614 460.692 65.3507 465.529 70.6067Z" fill="#274491"/>
<path d="M470.737 110.079C472.859 112.816 474.88 115.633 476.832 118.493C484.619 131.251 494.648 123.439 485.635 112.053C483.297 108.791 480.849 105.608 478.339 102.477C473.392 97.5347 465.947 104.943 470.737 110.079Z" fill="#274491"/>
<path d="M509.208 39.4347C507.879 45.8547 505.317 57.4694 510.852 62.472C513.18 64.576 516.719 64.228 518.409 61.4973C521.405 55.148 518.301 47.668 519.767 40.864C520.419 34.8573 510.429 33.532 509.208 39.4347Z" fill="#274491"/>
<path d="M536.563 84.9707C533.589 98.2347 531.723 118.744 543.228 128.645C554.792 133.841 547.141 111.691 546.924 106.532C546.059 99.7653 546.001 93.136 546.876 86.3667C547.635 80.4933 537.845 79.2547 536.563 84.9707Z" fill="#274491"/>
<path d="M538.855 180.337C543.332 187.127 547.292 195.713 554.703 199.637C557.097 200.6 559.127 197.843 558.625 195.716C555.84 188.64 549.497 183.008 546.303 175.984C543.607 171.136 536.063 175.519 538.855 180.337Z" fill="#274491"/>
<path d="M537.699 226.504C540.956 231.385 542.736 236.668 543.196 242.533C543.615 247.855 541.547 253.049 542.641 258.232C543.511 262.344 548.363 262.623 551.103 260.465C556.741 256.027 556.808 246.129 555.992 239.617C555.044 232.056 551.409 225.428 546.533 219.688C542.42 214.844 534.157 221.196 537.699 226.504Z" fill="#274491"/>
<path d="M586 216.084C593.533 225.6 581.108 249.927 592.725 246.164C605.373 239.448 602.54 220.103 596.253 210.091C592.196 203.627 582.284 209.369 586 216.084Z" fill="#274491"/>
<path d="M647.543 218.663C633.396 217.439 605.88 220.189 603.727 238.415C605.975 250.647 621.08 239.804 627.057 236.335C633.316 233.005 640.468 230.54 647.543 230.037C654.888 229.515 654.828 219.292 647.543 218.663Z" fill="#274491"/>
<path d="M155.48 295.997C166.299 299.956 184.456 292.465 190.372 282.709C192.393 279.472 189.812 274.383 185.784 274.715C179.961 274.535 174.835 276.84 169.741 279.357C164.677 281.396 158.071 282.228 154.227 286.279C151.769 288.869 151.672 294.345 155.48 295.997Z" fill="#274491"/>
<path d="M158.785 349.305C169.943 347.281 187.481 343.052 191.464 330.852C192.543 327.551 189.683 324.373 186.461 324.285C175.213 325.041 166.217 333.881 154.931 335.321C145.744 337.467 149.725 350.948 158.785 349.305Z" fill="#274491"/>
<path d="M261.683 235.101C268.408 229.555 275.312 224.163 282.208 218.828C288.511 213.952 295.652 209.551 299.144 202.141C300.46 199.352 298.928 195.676 295.475 195.747C278.381 197.241 263.988 214.34 252.755 226.173C247.395 232.388 255.435 240.255 261.683 235.101Z" fill="#274491"/>
<path d="M199.067 265.168C212.064 260.709 229.785 251.369 230.608 236.024C227.451 225.977 215.031 239.36 210.715 242.669C205.379 246.745 200.441 251.352 194.781 255C189.731 258.257 192.836 267.332 199.067 265.168Z" fill="#274491"/>
<path d="M169.28 83.4426C174.964 95.376 191.212 110.276 205.103 104.004C214.513 94.9546 197.707 91.3786 191.58 88.7653C186.495 86.108 182.131 82.5853 178.885 77.8266C174.839 71.892 166.153 76.984 169.28 83.4426Z" fill="#274491"/>
<path d="M293.024 76.7813C304.247 90.5507 333.501 95.8267 341.935 76.8707C343.013 67.648 325.752 73.3174 320.284 72.1654C313.477 71.7774 307.204 69.572 301.735 65.492C294.911 60.4027 287.833 71.0267 293.024 76.7813Z" fill="#274491"/>
<path d="M361.072 65.8947C367.692 61.7347 374.633 57.372 381.869 54.368C388.868 51.768 407.243 48.7827 400.617 37.9574C388.776 26.352 359.067 45.788 353.291 58.1134C350.459 62.92 356.192 68.9614 361.072 65.8947Z" fill="#274491"/>
<path d="M517.599 169.136C518.755 177.727 522.669 193.979 533.135 194.765C535.729 194.96 538.177 192.779 538.861 190.405C540.231 185.652 537.009 181.66 535.077 177.504C533.267 173.608 532.085 169.581 531.34 165.348C528.692 156.416 515.605 159.956 517.599 169.136Z" fill="#4F80CA"/>
<path d="M51.816 123.951C59.1867 136.632 79.3267 162.699 95.4867 160.393C98.98 159.719 101.331 155.304 100.245 152.013C97.5707 143.904 87.424 139.924 80.988 134.964C73.9307 129.525 67.0653 123.341 60.8467 116.983C56.2627 112.295 48.56 118.289 51.816 123.951Z" fill="#1E234B"/>
<path d="M79.0613 119.431C85.3867 125.191 93.276 133.825 102.581 132.588C105.525 131.787 106.239 128.752 105.159 126.252C101.011 119.832 92.0987 117.269 87.1934 111.297C81.9 106.111 73.896 114.116 79.0613 119.431Z" fill="#1E234B"/>
<path d="M121.171 172.651C131.285 178.648 149.277 187.189 160.389 179.811C162.685 178.287 163.025 174.676 160.389 173.227C155.387 170.479 150.443 170.72 144.908 170.02C138.273 169.181 132.033 167.272 126.028 164.34C120.516 161.649 115.779 169.455 121.171 172.651Z" fill="#1E234B"/>
<path d="M211.86 166.821C220.529 165.361 229.085 161.921 235.757 156.092C238.663 153.601 239.049 150.843 240.191 147.4C241.553 143.289 237.087 138.571 232.887 140.096C223.537 141.939 217.429 150.473 207.805 152.116C198.144 154.683 202.364 168.415 211.86 166.821Z" fill="#1E234B"/>
<path d="M218.284 137.352C222.059 135.252 225.775 133.043 229.379 130.659C234.38 128.309 243.425 118.273 233.777 116.047C225.679 116.688 219.904 124.576 212.857 128.069C207.027 131.764 212.209 140.733 218.284 137.352Z" fill="#1E234B"/>
<path d="M33.0067 73.7106C38.7707 85.4253 44.9294 99.572 57.1147 105.672C59.436 106.559 62.132 103.828 61.2667 101.52C59.0894 95.7013 54.168 91.4333 50.6027 86.444C46.7307 81.0267 43.5187 75.2293 40.7773 69.1679C38.3773 63.8586 30.7627 68.4746 33.0067 73.7106Z" fill="#1E234B"/>
<path d="M75.5894 79.7373C81.204 91.5707 91.0174 107.257 104.855 109.604C108.361 109.747 110.335 105.701 108.741 102.832C105.925 97.7627 99.4347 94.5267 95.316 90.428C90.7227 85.8587 86.9213 80.6027 83.792 74.9427C80.752 69.444 73.26 74.28 75.5894 79.7373Z" fill="#1E234B"/>
<path d="M155.337 329.717C168.619 326.476 195.255 316.604 196.635 300.993C196.805 297.864 193.913 295.489 191.008 295.367C183.143 295.036 177.24 301.592 171.051 305.595C164.335 309.939 157.207 313.585 149.944 316.924C142.42 320.383 147.963 331.313 155.337 329.717Z" fill="#1E234B"/>
<path d="M196.545 341.393C204.053 337.859 211.653 334.571 218.72 330.185C224.747 326.445 232.533 322.535 234.56 315.284C235.421 312.204 232.963 308.629 229.617 308.796C222.215 309.165 216.793 315.256 211.093 319.472C204.736 324.175 198.485 329.028 191.687 333.083C186.287 336.303 191.013 343.997 196.545 341.393Z" fill="#1E234B"/>
<path d="M226.396 270.439C233.476 269.764 239.889 267.777 245.8 263.719C251.133 260.059 257.332 254.163 255.949 247.104C255.561 245.117 253.093 243.103 251.008 243.341C245.832 243.932 242.221 248.091 238.219 251.141C234.236 254.176 229.452 256.221 224.651 257.548C217.761 259.452 218.82 271.16 226.396 270.439Z" fill="#1E234B"/>
<path d="M157.72 365.237C162.544 361.691 167.385 358.164 172.161 354.552C178.819 350.692 189.839 337.079 176.801 334.516C165.397 335.524 158.104 348.124 149.691 354.832C144.436 359.917 151.532 369.788 157.72 365.237Z" fill="#1E234B"/>
<path d="M29.016 340.508C34.924 337.78 40 333.581 46.0534 330.957C51.632 328.54 57.8267 327.201 62.296 322.861C64.2627 320.951 63.9347 317.197 61.3987 315.892C48.6933 309.352 27.5467 321.165 21.0627 332.556C18.0011 337.935 23.948 342.849 29.016 340.508Z" fill="#1E234B"/>
<path d="M35.8347 267.635C42.6387 278.463 57.1747 296.744 71.2333 295.236C74.2667 294.601 75.544 290.768 74.072 288.257C70.9893 282.997 63.8507 280.936 58.9853 277.524C53.248 273.5 48.3013 268.42 44.2533 262.713C40.6853 257.683 32.5707 262.143 35.8347 267.635Z" fill="#1E234B"/>
<path d="M536.065 290.728C545.243 288.035 553.281 284.628 560.977 278.843C567.319 274.076 576.511 266.572 575.68 257.737C575.351 254.233 572.767 252.393 569.351 252.916C562.249 254.003 556.431 261.699 551.203 266.175C545.24 271.28 538.339 276.004 531.345 279.532C525.116 282.676 529.456 292.667 536.065 290.728Z" fill="#1E234B"/>
<path d="M560.204 253.077C567.556 246.02 576.928 238.409 578.643 227.856C575.561 218.459 567.611 232.469 565.097 235.857C561.988 240.065 558.384 243.876 554.548 247.421C550.728 250.951 556.335 256.392 560.204 253.077Z" fill="#1E234B"/>
<path d="M419.171 122.751C427.833 127.384 435.991 132.86 443.153 139.615C449.493 145.592 454.651 155.568 462.613 159.247C465.407 160.537 468.007 158.952 468.349 155.955C468.632 136.495 440.065 117.995 423.121 113.384C417.609 111.825 413.976 119.973 419.171 122.751Z" fill="#1E234B"/>
<path d="M447.164 119.609C454.748 126.872 459.889 138.043 468.925 143.147C475.289 145.757 475.153 136.6 474.32 132.653C470.585 123.22 462.713 115.765 454.359 110.284C448.543 106.497 442.696 114.809 447.164 119.609Z" fill="#1E234B"/>
<path d="M350.465 115.013C358.775 114.609 368.553 117.509 375.688 112.312C378.461 109.923 377.163 105.873 374.625 104.065C367.359 100.207 358.312 103.867 350.465 104.137C343.707 105 343.264 114.751 350.465 115.013Z" fill="#1E234B"/>
<path d="M437.135 90.9093C441.536 92.9067 445.536 95.476 449.623 98.0333C453.683 100.629 463.293 109.155 465.095 100.508C462.875 89.8387 450.765 84.2533 441.421 80.7427C435.549 78.6667 431.373 88.2947 437.135 90.9093Z" fill="#1E234B"/>
<path d="M272.443 36.952C283.519 49.5494 298.396 57.92 315.383 58.6173C329.555 59.2 350.433 55.24 356.369 40.596C357.112 31.6014 340.945 41.2147 336.885 42.3C317.341 50.2827 293.465 45.656 278.099 31.2947C274.313 27.7467 269.056 33.1 272.443 36.952Z" fill="#1E234B"/>
<path d="M303.396 34.1546C313.561 40.6546 338.371 46.8906 343.667 31.2546C344.009 21.576 330.409 27.0746 324.851 27.5813C318.668 28.1693 312.935 27.5133 307.153 25.244C301.819 23.1506 298.947 31.308 303.396 34.1546Z" fill="#1E234B"/>
<path d="M364.627 214.419C365.729 207.659 332.669 176.333 300.083 201.751C205.924 290.628 356.219 372.959 451.976 278.904C481.848 247.149 492.272 245.305 504.435 254.915C516.596 264.524 491.055 273.291 487.06 262.747C483.067 252.204 467.031 292.112 509.188 286.136C551.345 280.161 544.103 217.269 499.461 217.269C475.053 217.269 445.699 274.527 387.867 274.527C330.036 274.527 322.94 223.224 337.131 217.269C351.323 211.313 363.423 221.807 364.627 214.419Z" fill="#69B3E6"/>
<path d="M59.2547 245.424C65.3507 251.236 77.528 262.739 86.3813 258.384C89.0653 256.753 89.5067 253.728 88.3093 251.028C86.5453 247.051 81.28 246.191 77.7013 244.299C73.984 242.333 70.596 240.032 67.5627 237.116C62.088 231.853 54.1414 239.865 59.2547 245.424Z" fill="#B3E7F8"/>
<path d="M373.257 198.341C374.868 202.011 376.46 205.869 376.797 209.904C377.125 213.812 376.163 217.672 378.663 221.028C381.136 224.348 385.143 224.315 387.621 221.028C390.519 217.185 389.571 211.08 388.685 206.593C387.711 201.657 385.377 197.032 383.079 192.6C379.644 185.979 370.38 191.793 373.257 198.341Z" fill="#B3E7F8"/>
<path d="M444.421 158.989C446.932 162.319 449.904 165.653 451.16 169.7C452.516 174.072 452.729 179.312 456.351 182.548C458.941 184.863 462.236 184.212 464.204 181.536C467.671 176.821 466.109 169.475 464.055 164.485C461.928 159.321 458.248 155.281 454.631 151.112C449.864 145.619 439.951 153.061 444.421 158.989Z" fill="#B3E7F8"/>
<path d="M292.487 293.732C297.933 301.131 312.649 313.052 322.064 307.644C324.385 306.017 325.103 302.84 322.963 300.675C316.976 295.515 307.487 294.565 302.525 287.864C298.115 282.036 288.128 287.509 292.487 293.732Z" fill="#B3E7F8"/>
<path d="M398.549 266.184C409.351 267.145 425.747 265.219 428.788 252.236C430.092 246.673 425.323 242.016 419.804 243.252C415.591 244.195 413.349 247.187 409.895 249.379C406.536 251.509 402.464 252.533 398.549 252.808C389.903 253.417 389.993 265.421 398.549 266.184Z" fill="#B3E7F8"/>
<path d="M309.544 184.932C313.352 184.387 316.732 183.229 320.543 184.308C324.135 185.324 327.712 187.304 331.449 185.972C334.373 184.929 335.837 181.839 334.288 178.993C328.256 170.117 315.58 171.913 306.919 175.409C300.653 177.264 303.42 185.809 309.544 184.932Z" fill="#B3E7F8"/>
<path d="M255.2 146.257C249.445 147.273 244.233 149.793 239.248 152.763C228.059 157.753 228.455 171.676 242.428 165.133C247.752 162.741 252.795 159.627 258.556 158.432C266.569 156.771 263.105 144.863 255.2 146.257Z" fill="#B3E7F8"/>
<path d="M39.532 151.212C41.624 157.045 44.304 162.639 49.3907 166.481C54.0653 170.673 59.5907 176.655 66.3107 175.481C76.6053 170.489 63.54 161.096 58.372 157.5C53.9347 154.636 51.3293 150.275 49.0307 145.66C45.0947 139.768 36.3307 144.869 39.532 151.212Z" fill="#B3E7F8"/>
<path d="M336.443 199.856C325.459 205.84 314.211 220.061 318.959 233.012C320.417 235.945 324.752 235.604 326.299 233.012C330.653 224.332 332.141 213.613 341.555 208.599C347.001 205.067 342.181 196.681 336.443 199.856Z" fill="#B3E7F8"/>
<path d="M337.373 266.693C342.684 276.572 352.657 285.084 364.3 280.003C366.192 278.865 367.332 275.888 365.891 273.932C362.797 269.735 358.696 270.581 354.128 269.352C349.94 268.225 347.287 264.277 344.441 261.24C341.009 257.577 334.443 262.425 337.373 266.693Z" fill="#B3E7F8"/>
<path d="M308.423 242.349C308.203 251.037 310.897 262.617 317.844 268.511C320.08 270.568 323.875 270.256 325.387 267.539C328.423 262.432 316.788 252.805 317.923 242.349C317.903 236.228 308.577 236.239 308.423 242.349Z" fill="#B3E7F8"/>
<path d="M285.528 220.431C283.783 226.177 283.072 233.017 282.6 238.991C282.189 244.213 284.044 250.64 288.103 254.107C290.323 256.001 293.407 254.683 293.651 251.808C294.105 246.469 290.527 242.763 291.561 237.055C292.415 232.341 292.541 227.304 293.965 222.757C295.649 217.376 287.163 215.045 285.528 220.431Z" fill="#B3E7F8"/>
<path d="M364.689 303.123C378.553 310.929 392.884 302.024 402.94 292.124C406.061 288.993 402.919 283.303 398.561 284.604C393.093 286.237 388.185 288.192 383.193 291.009C377.444 295.449 374.135 295.353 367.58 292.635C360.701 290.692 358.308 300.635 364.689 303.123Z" fill="#B3E7F8"/>
<path d="M467.751 251.316C472.144 245.532 477.628 241.128 484.696 239.135C491.968 236.683 510.441 225.772 497.847 218.671C490.283 215.796 481.753 223.545 475.255 226.692C467.177 230.605 463.265 236.887 458.032 243.819C453.784 249.447 463.024 256.401 467.751 251.316Z" fill="#B3E7F8"/>
<path d="M525.287 250.676C526.68 258.043 526.157 267.784 520.405 273.059C517.995 274.365 515.871 274.311 513.584 276.101C506.321 286.685 530.293 289.732 535.34 275.417C539.107 266.219 539.235 257.109 535.773 247.785C533.36 241.283 523.761 243.751 525.287 250.676Z" fill="#B3E7F8"/>
<path d="M549.288 44.424C543.435 53.8133 539.025 67.5919 544.459 78.1573C545.251 79.6999 547.821 80.1306 548.973 78.7386C555.663 70.656 557.519 58.5719 558.997 48.5173C559.835 42.8306 552.691 38.9653 549.288 44.424Z" fill="#4F80CA"/>
<path d="M514.229 82.044C509.935 93.048 506.396 121.323 519.968 126.605C530.767 127.161 526.417 112.193 524.884 105.737C523.581 98.3347 523.229 90.7453 523.192 83.2573C523.164 77.8707 515.973 77.3787 514.229 82.044Z" fill="#4F80CA"/>
<path d="M552.083 132.459C551.665 141.673 553.684 159.465 565.125 161.509C567.78 161.984 569.636 160.44 569.951 157.833C570.023 148.953 563.061 141.619 563.584 132.457C563.284 125.056 552.419 125.057 552.083 132.459Z" fill="#4F80CA"/>
<path d="M600.293 208.907C606.895 216.389 622.201 235.408 633.207 229.451C634.933 228.381 636.305 226.381 636.179 224.268C635.759 217.289 629.028 214.827 623.743 211.604C618.38 208.335 613.416 204.665 608.867 200.333C603.077 194.821 595.527 202.935 600.293 208.907Z" fill="#4F80CA"/>
<path d="M539.863 224.997C544.985 233.42 544.631 244.577 551.273 252.035C553.568 254.255 557.267 253.743 558.931 251.047C565.115 241.032 556.855 226.779 551.088 218.436C546.351 211.584 536.023 217.48 539.863 224.997Z" fill="#4F80CA"/>
<path d="M311.069 126.316C323.783 128.787 341.193 126.113 346.452 112.588C347.508 108.905 344.115 106.516 340.839 106.976C331.485 109.251 322.735 115.769 312.597 115.021C306.248 114.705 304.589 125.404 311.069 126.316Z" fill="#4F80CA"/>
<path d="M307.044 79.9987C316.555 81.092 327.963 85.7587 336.36 79.4347C339.417 76.84 337.959 72.368 335.196 70.4027C331.284 67.6187 326.797 68.4907 322.271 68.564C317.724 68.636 313.197 68.4053 308.672 67.9667C301.824 67.304 300.309 78.6053 307.044 79.9987Z" fill="#4F80CA"/>
<path d="M373.38 61.396C369.613 71.456 366.781 87.1174 377.201 94.048C380.371 95.6907 384.372 94.32 385.373 90.724C386.904 82.008 380.84 73.1853 384.229 64.3867C386.4 57.4147 375.755 54.6294 373.38 61.396Z" fill="#4F80CA"/>
<path d="M452.164 44.1854C456.875 51.504 457.447 60.4 461.776 67.7494C464.807 72.8947 471.74 71.2453 473.647 66.1973C477.743 55.352 470.092 43.4267 463.159 35.7027C457.873 29.816 447.856 37.4934 452.164 44.1854Z" fill="#4F80CA"/>
<path d="M188.625 114.816C193.435 116.565 197.339 120.245 200.736 123.943C213.079 139.283 223.751 120.741 206.728 109.595C201.813 106.04 195.899 104.857 189.939 105.117C184.227 105.365 183.423 112.923 188.625 114.816Z" fill="#4F80CA"/>
<path d="M54.104 83.28C59.2773 85.856 64.6107 87.6013 70.4587 87.4387C85.0547 88.6373 89.1907 73.424 74.8707 73.628C69.116 74.4053 63.792 75.3813 57.9573 74.1413C52.708 73.024 48.7627 80.62 54.104 83.28Z" fill="#4F80CA"/>
<path d="M166.113 64.1614C165.077 67.8534 163.493 71.3587 161.544 74.6654C159.219 78.6614 154.38 87.3814 160.696 89.9467C172.349 91.5427 178.753 77.636 180.697 68.1813C182.644 58.7227 168.765 54.7027 166.113 64.1614Z" fill="#4F80CA"/>
<path d="M219.903 86.7227C225.74 95.436 239.956 108.561 250.501 100.348C251.695 99.144 252.097 96.9733 251.127 95.5C248.484 91.488 244.105 90.8973 239.959 89.236C235.86 87.592 231.877 84.832 229.292 81.2333C225.271 75.6347 215.928 80.8693 219.903 86.7227Z" fill="#4F80CA"/>
<path d="M453.721 78.008C454.447 86.456 447.253 93.228 448.319 101.556C448.757 104.215 451.923 105.425 454.24 104.917C465.268 102.499 465.092 86.556 464.097 78.008C463.347 71.56 453.533 71.168 453.721 78.008Z" fill="#4F80CA"/>
<path d="M110.767 134.631C108.544 145.819 106.276 162.259 114.685 171.433C117.955 175 122.981 172.672 124.504 168.84C127.499 158.504 123.707 147.021 123.904 136.408C123.573 129.243 112.305 126.881 110.767 134.631Z" fill="#4F80CA"/>
<path d="M207.245 150.176C207.029 158.74 198.913 164.312 198.44 172.607C198.464 174.165 199.685 175.261 201.191 175.357C213.075 176.121 215.253 158.685 214.62 150.176C214.265 145.412 207.675 145.456 207.245 150.176Z" fill="#4F80CA"/>
<path d="M78.7027 274.075C70.2627 276.641 63.7213 282.387 60.8013 290.749C58.468 297.432 68.768 301.623 72.1467 295.532C76.2773 285.457 88.216 286.853 86.3147 278.397C85.444 275.231 81.912 273.099 78.7027 274.075Z" fill="#4F80CA"/>
<path d="M82.5667 336.64C90.2147 340.103 105.855 345.504 111.492 336.179C112.633 334.289 111.901 331.731 110.035 330.62C102.543 327.271 93.8987 331.661 86.2267 327.957C81.2147 326.177 77.6453 334.412 82.5667 336.64Z" fill="#4F80CA"/>
<path d="M422.777 166.741C432.529 177.729 431.46 189.795 434.779 202.635C436.445 206.735 441.159 207.381 443.804 203.815C452.28 188.939 442.377 169.171 430.733 158.787C425.225 153.927 418.235 161.18 422.777 166.741Z" fill="#5896D7"/>
<path d="M174.235 238.808C186.916 238.001 211.141 233.292 212.22 217.256C212.432 214.111 209.567 212.209 206.845 211.88C200.455 211.107 195.507 215.356 190.212 218.169C184.551 221.176 178.581 223.3 172.324 224.689C164.5 226.427 166.095 239.325 174.235 238.808Z" fill="#5896D7"/>
<path d="M28.8347 230.009C34.6347 238.791 48.276 259.315 59.5547 259.056C62.6294 258.657 64.94 256.344 64.1347 253.043C62.72 247.233 55.2947 243.843 51.052 240.015C46.0187 235.475 41.56 230.393 37.6854 224.836C33.9667 219.503 25.3747 224.275 28.8347 230.009Z" fill="#5896D7"/>
<path d="M252.565 222.265C258.592 215.191 264.82 208.26 271.136 201.441C276.597 195.545 285.193 189.052 287.019 180.937C287.927 176.896 284.525 173.491 280.483 174.401C267.752 177.559 251.261 203.875 242.748 214.691C238.701 220.455 247.96 227.672 252.565 222.265Z" fill="#5896D7"/>
<path d="M339.453 180.257C346.103 184.533 352.037 189.751 357.297 195.647C362.008 200.927 365.231 208.92 373.045 209.575C374.584 209.704 376.471 208.601 377.148 207.223C381.205 198.955 373.284 190.685 367.972 184.973C361.736 178.269 354.221 173.02 346.015 169.032C338.529 165.395 332.349 175.688 339.453 180.257Z" fill="#5896D7"/>
<path d="M351.469 251.353C358.248 265.109 381.045 276.323 392.347 261.989C395.461 253.016 380.204 255.001 375.001 253.604C369.152 252.681 362.916 249.905 358.733 245.748C355.008 242.047 348.84 246.769 351.469 251.353Z" fill="#5896D7"/>
<path d="M387.671 169.864C392.616 174.521 396.9 179.635 400.351 185.503C403.371 190.637 405.188 197.708 409.475 201.805C411.857 204.083 417.059 203.469 417.623 199.653C419.645 185.96 404.937 170.328 395.36 162.175C390.097 157.695 382.509 165.007 387.671 169.864Z" fill="#5896D7"/>
<path d="M477.756 251.129C461.492 253.027 442.281 260.825 436.797 277.611C435.521 281.519 440.461 285.511 443.959 283.116C455.76 275.04 464.68 266.117 479.468 263.775C486.556 262.652 484.976 250.288 477.756 251.129Z" fill="#5896D7"/>
<path d="M419.712 143.532C423.159 145.465 427.087 146.501 430.14 149.037C433.432 151.772 436.816 154.021 440.367 156.303C442.691 157.796 446.645 155.884 446.292 152.903C445.448 141.367 432.733 134.679 422.204 134.331C417.229 133.957 415.607 141.229 419.712 143.532Z" fill="#F6F462"/>
<path d="M296.251 283.357C300.947 293.513 316.716 310.123 328.847 304.703C331.679 302.977 331.723 299.621 329.808 297.241C326.745 293.431 320.373 292.449 316.264 289.789C311.949 286.996 307.613 282.659 305.209 278.121C302.012 272.087 293.668 277.392 296.251 283.357Z" fill="#F6F462"/>
<path d="M525.704 234.636C528.831 236.608 529.992 242.608 530.96 245.823C540.139 260.479 552.485 233.467 530.519 223.213C523.824 221.025 519.54 231.224 525.704 234.636Z" fill="#F6F462"/>
<path d="M359.661 192.129C365.588 199.459 366.615 210.411 374.397 216.525C376.512 218.187 379.211 218.084 380.777 215.703C384.343 210.287 380.891 203.953 378.309 198.948C375.361 193.233 373.488 187.616 368.941 182.848C362.989 176.604 354.465 185.704 359.661 192.129Z" fill="#F6F462"/>
<path d="M443.309 197.439C441.969 208.543 438.357 220.619 433.311 230.607C430.12 234.437 428.055 243.443 435.141 243.947C455.753 242.992 456.619 210.343 453.132 196.111C451.744 190.445 443.601 191.965 443.309 197.439Z" fill="#F6F462"/>
<path d="M341.4 233.641C337.249 242.969 339.764 255.924 348.656 261.611C351.328 263.319 354.341 262.36 356.595 260.585C357.913 259.548 358.513 257.593 358.513 255.953C357.427 249.541 349.136 244.627 350.311 237.397C351.199 232.412 343.817 228.208 341.4 233.641Z" fill="#F6F462"/>
<path d="M740.972 476.341C736.536 472.956 728.164 472.731 724.244 476.701C722.232 478.737 720.932 481.549 718.443 482.961C713.273 485.893 707.188 481.155 701.28 480.513C696.255 479.968 691.335 482.549 687.661 486.02C683.157 490.275 679.957 496.841 682.109 502.651C682.728 504.32 683.76 505.853 684.041 507.61C684.708 511.793 681.087 515.252 678.196 518.348C675.307 521.444 673.589 528.233 676.415 531.388L740.972 531.952V476.341Z" fill="#BDD273"/>
</svg>
