<svg width="239" height="240" viewBox="0 0 239 240" fill="none" xmlns="http://www.w3.org/2000/svg">
<path d="M238.392 120.032C236.304 148.987 235.381 161.268 217.848 185.803C207.787 207.437 184.955 219.151 165.288 230.781C139.452 243.825 86.824 242.213 63.62 224.42C56.079 221.579 49.873 217.287 44.517 211.295C34.175 205.311 27.433 195.417 19.432 186.836C6.41501 162.949 -1.23199 135.636 0.588013 108.327C3.33301 85.1999 10.537 61.3426 28.016 45.0226C34.515 35.0333 42.157 25.8519 53.48 21.3479C59.608 16.4146 66.291 12.4186 73.711 9.68794C80.821 5.63728 88.203 4.0559 96.372 4.20923C110.929 -2.70944 127.181 3.34258 142.625 3.35858C197.84 12.2613 239.463 64.7999 238.392 120.032Z" fill="#69B3E6"/>
<path d="M209.933 120.032C207.457 157.905 200.529 165.608 175.071 192.571C146.459 211.799 103.612 220.611 74.48 197.865C57.255 189.12 40.957 173.64 36.353 154.436C32.277 147.348 30.415 139.964 30.573 131.732C28.468 124.053 28.009 116.033 29.669 108.215C29.208 91.9079 38.62 77.8092 48.225 65.4079C57.073 51.8639 70.371 43.0439 84.608 35.9972C116.509 22.4132 146.737 29.5479 175.331 47.1626C186.183 58.7546 197.525 70.1612 204.108 84.9519C205.616 88.5866 204.965 92.9759 205.996 96.8305C209.757 104.245 211.225 111.659 209.933 120.032Z" fill="#B3E7F8"/>
<path d="M189.761 120.032C187.845 140.493 183.328 162.201 164.279 173.503C143.089 192.468 121.748 193.44 95.287 186.321C61.905 177.643 45.155 139.921 49.556 107.713C50.269 99.0706 53.553 91.7452 59.037 85.1759C63.719 73.2999 74.812 66.7866 84.044 58.7653C106.164 45.1066 132.039 47.4546 154.429 59.3853C175.456 70.8253 191.725 95.6453 189.761 120.032Z" fill="#F6F462"/>
<path d="M171.204 120.032C168.284 154.329 152.204 166.896 119.413 172.728C92.567 171.9 65.784 147.668 66.233 120.033C68.577 94.0399 90.856 64.3866 119.415 68.8826C127.599 67.8613 134.777 69.6253 141.491 74.1906C160.143 80.7853 172.621 100.256 171.204 120.032Z" fill="#F9F891"/>
<path d="M161.253 135.469C155.867 151.749 140.52 163.496 122.44 163.496C99.853 163.496 81.547 145.189 81.547 122.616C81.547 100.029 99.853 81.7226 122.44 81.7226C128.547 81.7226 134.347 83.0692 139.547 85.4692C124.533 86.4959 112.667 99.0026 112.667 114.296C112.667 130.256 125.613 143.203 141.573 143.203C149.187 143.203 156.093 140.269 161.253 135.469Z" fill="#FBC119"/>
<path d="M12.008 103.667C9.989 118.575 9.78699 137.037 18.749 150.053C22.868 156.033 31.247 150.935 28.356 144.439C26.937 141.252 26.943 137.571 25.873 134.253C24.872 131.145 24.023 128.145 23.443 124.928C22.237 118.233 20.987 111.645 20.603 104.829C20.343 100.229 12.707 98.5106 12.008 103.667Z" fill="#B3E7F8"/>
<path d="M45.488 164.46C47.507 167.605 48.708 171.148 51.093 174.067C53.295 176.76 55.975 178.109 59.131 179.451C64.28 181.637 68.848 189.195 75.096 186.923C77.084 186.2 78.347 184.664 78.447 182.524C78.709 176.875 72.801 170.084 68.145 167.561C65.893 166.341 62.963 165.912 61.22 163.941C59.253 161.719 57.929 158.66 56.089 156.28C51.4 150.215 41.387 158.069 45.488 164.46Z" fill="#F6F462"/>
<path d="M58.052 73.3853C54.901 79.0933 51.945 84.8292 49.004 90.6426C46.565 95.4612 43.517 99.1946 44.539 104.871C44.925 107.024 47.925 108.843 49.997 107.969C60.705 103.459 64.32 89.3466 68.521 79.5053C71.492 72.5466 61.931 66.3573 58.052 73.3853Z" fill="#F6F462"/>
</svg>
