<svg width="42" height="43" viewBox="0 0 42 43" fill="none" xmlns="http://www.w3.org/2000/svg">
<path d="M41.68 20.876C41.68 24.5027 40.072 27.988 38.3773 30.9173C36.6293 33.9387 34.476 37.2587 31.4546 39.0067C28.5253 40.7014 24.6133 42.0974 20.9853 42.0974C17.3586 42.0974 13.44 40.712 10.5106 39.0173C7.48929 37.268 4.43063 34.4654 2.68263 31.444C0.987967 28.516 0.959961 24.5027 0.959961 20.876C0.959961 17.2494 1.3253 13.432 3.01997 10.5027C4.76797 7.48136 8.66263 6.50935 11.684 4.76135C14.612 3.06669 17.3586 0.712036 20.9853 0.712036C24.6133 0.712036 28.0133 1.93602 30.9413 3.63069C33.964 5.38002 36.1626 8.08403 37.9106 11.1054C39.6053 14.0347 41.68 17.2494 41.68 20.876Z" fill="#B3E7F8"/>
<path d="M33.6013 20.876C33.6013 24.1427 31.612 27.22 29.4706 29.3613C27.3293 31.5013 24.2533 33.7293 20.9853 33.7293C17.7186 33.7293 13.8346 32.3093 11.6933 30.168C9.55196 28.028 8.12131 24.1427 8.12131 20.876C8.12131 17.6094 9.61597 13.788 11.756 11.6467C13.8973 9.50536 17.7186 8.92934 20.9853 8.92934C24.2533 8.92934 27.7986 9.78134 29.94 11.9227C32.08 14.0627 33.6013 17.6094 33.6013 20.876Z" fill="#F6F462"/>
<path d="M26.1386 20.876C26.1386 23.2894 23.3986 25.4147 20.9853 25.4147C18.5733 25.4147 15.5933 23.2894 15.5933 20.876C15.5933 18.4627 18.5733 15.196 20.9853 15.196C23.3986 15.196 26.1386 18.4627 26.1386 20.876Z" fill="#FBC119"/>
</svg>
