<svg width="69" height="70" viewBox="0 0 69 70" fill="none" xmlns="http://www.w3.org/2000/svg">
<path d="M68.7627 34.2214C68.584 64.2774 30.2626 82.4707 9.84398 58.348C2.39065 52.1027 -0.432016 43.9414 1.27598 34.2214C-2.51868 9.30938 26.1506 -4.06661 47.0453 2.66539C60.752 6.82406 66.0453 21.4094 68.7627 34.2214Z" fill="#69B3E6"/>
<path d="M58.4786 34.2214C56.7026 66.6734 9.39199 67.4467 10.1347 34.2214C9.42132 24.7947 14.0307 17.9814 22.7667 14.8067C37.3533 2.65603 57.2333 17.6761 58.4786 34.2214Z" fill="#B3E7F8"/>
<path d="M48.852 34.2214C47.5187 53.1374 18.9067 54.4801 18.8441 34.2214C18.0214 15.1721 49.4027 15.4241 48.852 34.2214Z" fill="#F6F462"/>
<path d="M39.1266 34.2214C39.1266 36.6347 36.3867 38.76 33.9733 38.76C31.56 38.76 28.5813 36.6347 28.5813 34.2214C28.5813 31.8094 31.56 28.5427 33.9733 28.5427C36.3867 28.5427 39.1266 31.8094 39.1266 34.2214Z" fill="#FBC119"/>
</svg>
