<svg width="42" height="43" viewBox="0 0 42 43" fill="none" xmlns="http://www.w3.org/2000/svg">
<path d="M41.3866 20.852C41.3866 24.48 39.7786 27.9653 38.0839 30.8933C36.3359 33.916 34.1826 37.236 31.1599 38.984C28.2319 40.6787 24.3186 42.0733 20.6919 42.0733C17.0639 42.0733 13.1466 40.688 10.2173 38.9933C7.19593 37.2453 4.13594 34.4427 2.38794 31.4213C0.693273 28.492 0.665283 24.48 0.665283 20.852C0.665283 17.2254 1.03194 13.408 2.72528 10.48C4.47461 7.45735 8.36794 6.48535 11.3893 4.73868C14.3186 3.04268 17.0639 0.689331 20.6919 0.689331C24.3186 0.689331 27.7186 1.91335 30.648 3.60802C33.6693 5.35602 35.868 8.06002 37.616 11.0827C39.3106 14.0107 41.3866 17.2254 41.3866 20.852Z" fill="#B3E7F8"/>
<path d="M33.3066 20.8521C33.3066 24.1201 31.3173 27.1974 29.176 29.3374C27.036 31.4787 23.9586 33.7067 20.692 33.7067C17.4253 33.7067 13.54 32.2854 11.4 30.1454C9.25864 28.0041 7.82663 24.1201 7.82663 20.8521C7.82663 17.5854 9.3213 13.7641 11.4626 11.6241C13.6026 9.48273 17.4253 8.90668 20.692 8.90668C23.9586 8.90668 27.504 9.75874 29.6453 11.8987C31.7866 14.0401 33.3066 17.5854 33.3066 20.8521Z" fill="#F6F462"/>
<path d="M25.8453 20.852C25.8453 23.2653 23.1053 25.3907 20.6919 25.3907C18.2786 25.3907 15.3 23.2653 15.3 20.852C15.3 18.44 18.2786 15.1733 20.6919 15.1733C23.1053 15.1733 25.8453 18.44 25.8453 20.852Z" fill="#FBC119"/>
</svg>
