<svg width="69" height="70" viewBox="0 0 69 70" fill="none" xmlns="http://www.w3.org/2000/svg">
<path d="M68.496 33.848C66.7387 59.388 44.796 75.652 20.2213 66.4C12.4813 62.188 5.56399 55.0254 1.51333 47.1827C-0.149341 43.1734 1.008 38.4587 1.008 33.848C-1.19066 19.7854 8.11066 7.64141 20.8333 2.76541C24.8413 1.10275 29.096 1.02407 33.7067 1.02407C42.968 0.137407 51.68 2.98005 58.2547 9.30005C61.3867 12.432 62.5707 17.0227 64.2933 21.1787C65.956 25.188 68.496 29.236 68.496 33.848Z" fill="#69B3E6"/>
<path d="M58.212 33.848C58.212 38.1694 56.4187 42.3054 54.4 45.7947C52.3173 49.3947 49.6813 53.1974 46.0813 55.2801C42.592 57.2987 38.028 58.8787 33.7067 58.8787C29.3853 58.8787 24.816 57.3081 21.3267 55.2881C17.7267 53.2054 14.1853 49.9214 12.1027 46.3214C10.084 42.8321 9.87067 38.1694 9.87067 33.848C9.87067 29.5267 10.4213 25.0573 12.44 21.568C14.5227 17.9693 18.9 16.5147 22.4987 14.4321C25.9893 12.4134 29.3853 9.87335 33.7067 9.87335C38.028 9.87335 42.0787 11.2827 45.5693 13.3027C49.168 15.3854 51.8493 18.572 53.932 22.172C55.9507 25.66 58.212 29.5267 58.212 33.848Z" fill="#B3E7F8"/>
<path d="M48.5867 33.848C48.5867 37.74 46.344 41.3827 43.7933 43.9334C41.2427 46.4841 37.5987 48.9654 33.7067 48.9654C29.8147 48.9654 25.364 47.292 22.8133 44.74C20.2627 42.1907 18.5773 37.74 18.5773 33.848C18.5773 29.9547 20.3253 25.5681 22.876 23.0161C25.4267 20.4667 29.8147 19.6374 33.7067 19.6374C37.5987 19.6374 41.7107 20.7414 44.2613 23.2934C46.812 25.8428 48.5867 29.9547 48.5867 33.848Z" fill="#F6F462"/>
<path d="M38.86 33.848C38.86 36.26 36.12 38.3854 33.7067 38.3854C31.2933 38.3854 28.3147 36.26 28.3147 33.848C28.3147 31.4347 31.2933 28.1667 33.7067 28.1667C36.12 28.1667 38.86 31.4347 38.86 33.848Z" fill="#FBC119"/>
</svg>
