<svg width="49" height="50" viewBox="0 0 49 50" fill="none" xmlns="http://www.w3.org/2000/svg">
<path d="M48.5693 24.704C48.5693 29.0253 46.776 33.1613 44.7573 36.6507C42.6746 40.2507 40.0386 44.0533 36.4386 46.136C32.9493 48.1547 28.3853 49.7347 24.064 49.7347C19.7426 49.7347 15.1733 48.164 11.684 46.1454C8.08397 44.0627 4.54263 40.7774 2.45996 37.1774C0.441298 33.688 0.227966 29.0253 0.227966 24.704C0.227966 20.3827 0.778637 15.9133 2.79864 12.424C4.8813 8.824 9.25731 7.37067 12.8573 5.288C16.3466 3.26933 19.7426 0.72934 24.064 0.72934C28.3853 0.72934 32.4373 2.13867 35.9266 4.15733C39.5266 6.24133 42.2066 9.42801 44.2893 13.028C46.308 16.5173 48.5693 20.3827 48.5693 24.704Z" fill="#69B3E6"/>
<path d="M38.944 24.704C38.944 28.596 36.7013 32.2387 34.1506 34.7893C31.6 37.34 27.9573 39.8213 24.064 39.8213C20.172 39.8213 15.7213 38.148 13.1706 35.5973C10.62 33.0467 8.93597 28.596 8.93597 24.704C8.93597 20.8107 10.6826 16.424 13.2346 13.8733C15.7853 11.3227 20.172 10.4933 24.064 10.4933C27.9573 10.4933 32.068 11.5973 34.6186 14.148C37.1706 16.6987 38.944 20.8107 38.944 24.704Z" fill="#F6F462"/>
<path d="M29.2173 24.704C29.2173 27.116 26.4773 29.2413 24.064 29.2413C21.652 29.2413 18.672 27.116 18.672 24.704C18.672 22.2907 21.652 19.024 24.064 19.024C26.4773 19.024 29.2173 22.2907 29.2173 24.704Z" fill="#FBC119"/>
</svg>
