<svg width="69" height="69" viewBox="0 0 69 69" fill="none" xmlns="http://www.w3.org/2000/svg">
<path d="M68.512 33.7107C68.512 38.3214 66.9667 42.7827 65.304 46.792C63.58 50.948 61.624 55.348 58.492 58.48C55.36 61.612 51.3973 64.6227 47.2413 66.3467C39.0867 69.5987 28.3787 69.5614 20.2387 66.264C16.0827 64.5414 12.728 60.9694 9.59598 57.8374C6.46398 54.7054 3.25332 51.2027 1.52932 47.0467C-0.13335 43.036 1.02399 38.3214 1.02399 33.7107C1.02399 29.1 0.401318 24.6067 2.06398 20.5974C5.62532 12.3174 12.4307 5.87603 20.848 2.62936C24.8587 0.966693 29.112 0.886684 33.7226 0.886684C38.3333 0.886684 42.7853 0.490684 46.7946 2.15335C50.9506 3.87735 55.1387 6.03069 58.2707 9.16403C61.4027 12.296 62.5867 16.8854 64.3093 21.0414C65.972 25.0507 68.512 29.1 68.512 33.7107Z" fill="#62ABE2"/>
<path d="M58.228 33.7107C58.228 38.032 56.4347 42.168 54.416 45.6573C52.3333 49.2573 49.6973 53.06 46.0973 55.1427C42.608 57.1613 38.044 58.7427 33.7226 58.7427C29.4013 58.7427 24.832 57.1707 21.3426 55.152C17.7426 53.0693 14.2013 49.784 12.1186 46.184C10.1 42.6947 9.88664 38.032 9.88664 33.7107C9.88664 29.3893 10.4373 24.9213 12.456 21.432C14.54 17.832 18.916 16.3773 22.516 14.2947C26.0053 12.276 29.4013 9.73601 33.7226 9.73601C38.044 9.73601 42.096 11.1467 45.5853 13.1653C49.1853 15.248 51.8653 18.4347 53.948 22.0347C55.9666 25.524 58.228 29.3893 58.228 33.7107Z" fill="#B3E7F8"/>
<path d="M48.6027 33.7107C48.6027 37.6027 46.36 41.2467 43.8093 43.7973C41.2587 46.348 37.6146 48.828 33.7226 48.828C29.8306 48.828 25.38 47.1547 22.8293 44.604C20.2787 42.0533 18.5947 37.6027 18.5947 33.7107C18.5947 29.8187 20.3413 25.4307 22.892 22.88C25.4426 20.3294 29.8306 19.5 33.7226 19.5C37.6146 19.5 41.7267 20.6053 44.2773 23.156C46.828 25.7067 48.6027 29.8187 48.6027 33.7107Z" fill="#F6F462"/>
<path d="M38.876 33.7107C38.876 36.124 36.136 38.2494 33.7226 38.2494C31.3093 38.2494 28.3306 36.124 28.3306 33.7107C28.3306 31.2974 31.3093 28.0307 33.7226 28.0307C36.136 28.0307 38.876 31.2974 38.876 33.7107Z" fill="#FBC119"/>
</svg>
