<svg width="49" height="50" viewBox="0 0 49 50" fill="none" xmlns="http://www.w3.org/2000/svg">
<path d="M48.5973 24.0801C47.2173 42.5867 28.6773 55.7614 11.7119 45.5214C3.72661 41.1187 -0.50538 33.3534 0.255953 24.0801C0.182619 13.2481 3.14531 8.95204 12.8853 4.66537C20.372 -0.891961 27.9973 -1.24929 35.9546 3.53471C42.612 7.79604 47.864 16.0907 48.5973 24.0801Z" fill="#62ABE2"/>
<path d="M38.972 24.08C38.972 27.972 36.7293 31.616 34.1786 34.1667C31.628 36.7174 27.9853 39.1974 24.092 39.1974C20.2 39.1974 15.7494 37.524 13.1987 34.9734C10.648 32.4227 8.96399 27.972 8.96399 24.08C8.96399 20.188 10.712 15.8 13.2627 13.2494C15.8134 10.6987 20.2 9.86937 24.092 9.86937C27.9853 9.86937 32.0973 10.9747 34.648 13.5254C37.1986 16.076 38.972 20.188 38.972 24.08Z" fill="#B3E7F8"/>
<path d="M29.2453 24.08C29.2453 26.4934 26.5053 28.6187 24.0919 28.6187C21.6799 28.6187 18.7 26.4934 18.7 24.08C18.7 21.6667 21.6799 18.4 24.0919 18.4C26.5053 18.4 29.2453 21.6667 29.2453 24.08Z" fill="#FBC119"/>
</svg>
