<svg width="50" height="49" viewBox="0 0 50 49" fill="none" xmlns="http://www.w3.org/2000/svg">
<path d="M49.2533 23.9426C49.2533 28.2639 47.46 32.4 45.4413 35.8893C39.4773 48.2986 23.9787 52.612 12.368 45.3826C4.11999 40.6093 0.31067 33.6359 0.912004 23.9426C1.01734 12.7093 3.53733 9.11866 13.54 4.52666C21.4547 -1.11201 28.2027 -1.42137 36.6093 3.3973C42.9093 7.17063 48.8026 16.4946 49.2533 23.9426Z" fill="#69B3E6"/>
<path d="M39.6267 23.9427C39.6267 27.8347 37.3853 31.4774 34.8347 34.028C32.284 36.5787 28.64 39.0601 24.748 39.0601C20.856 39.0601 16.4053 37.3867 13.8547 34.836C11.304 32.2854 9.61865 27.8347 9.61865 23.9427C9.61865 20.0493 11.3667 15.6627 13.9173 13.112C16.468 10.5613 20.856 9.73205 24.748 9.73205C28.64 9.73205 32.752 10.8374 35.3027 13.388C37.8533 15.9387 39.6267 20.0493 39.6267 23.9427Z" fill="#B3E7F8"/>
<path d="M29.9013 23.9427C29.9013 26.3547 27.1613 28.48 24.748 28.48C22.3347 28.48 19.356 26.3547 19.356 23.9427C19.356 21.5293 22.3347 18.2627 24.748 18.2627C27.1613 18.2627 29.9013 21.5293 29.9013 23.9427Z" fill="#FBC119"/>
</svg>
