<svg width="50" height="49" viewBox="0 0 50 49" fill="none" xmlns="http://www.w3.org/2000/svg">
<path d="M49.2226 23.9426C47.8426 42.4493 29.3027 55.6227 12.3373 45.3827C4.35199 40.9813 0.119985 33.216 0.881319 23.9426C0.807985 13.1106 3.77065 8.81468 13.5106 4.52668C20.9973 -1.02932 28.6227 -1.38668 36.58 3.39732C43.2373 7.65732 48.4893 15.9533 49.2226 23.9426Z" fill="#69B3E6"/>
<path d="M39.5973 23.9427C39.5973 27.8347 37.3546 31.4773 34.804 34.028C32.2533 36.5787 28.6093 39.06 24.7173 39.06C20.8253 39.06 16.3746 37.3867 13.824 34.836C11.2733 32.2854 9.58931 27.8347 9.58931 23.9427C9.58931 20.0493 11.336 15.6627 13.8866 13.112C16.4373 10.5613 20.8253 9.73205 24.7173 9.73205C28.6093 9.73205 32.7213 10.8374 35.272 13.388C37.8226 15.9387 39.5973 20.0493 39.5973 23.9427Z" fill="#F6F462"/>
<path d="M29.8706 23.9427C29.8706 26.3547 27.1306 28.48 24.7173 28.48C22.304 28.48 19.3253 26.3547 19.3253 23.9427C19.3253 21.5293 22.304 18.2627 24.7173 18.2627C27.1306 18.2627 29.8706 21.5293 29.8706 23.9427Z" fill="#FBC119"/>
</svg>
