<svg width="244" height="450" viewBox="0 0 244 450" fill="none" xmlns="http://www.w3.org/2000/svg">
<path d="M99.0107 224.383C98.868 238.799 102.723 253.233 110.032 265.66C115.545 275.031 122.899 283.163 130.197 291.22C137.248 299.005 144.299 306.789 151.349 314.575C154.873 318.465 158.448 322.431 160.705 327.171C162.292 330.501 163.177 334.117 163.96 337.723C165.341 344.075 166.444 350.484 167.265 356.932C167.909 361.987 168.372 367.188 167.109 372.124C165.913 376.793 163.241 380.945 160.337 384.792C170.06 385.991 176.209 376.739 184.287 371.196C188.647 368.205 193.667 366.181 198.883 365.311C200.055 365.116 201.296 364.984 202.4 365.421C205.115 366.496 205.503 370.273 204.581 373.044C203.66 375.815 201.883 378.384 201.827 381.303C201.727 386.457 206.765 389.988 211.089 392.797C220.72 399.052 229.727 406.648 235.836 416.372C241.947 426.096 244.909 438.268 242.039 449.388H28.004C5.26135 422.38 -4.27999 381.309 3.24268 346.811C7.86801 325.599 18.488 305.345 17.964 283.64C17.5 264.444 8.25869 245.927 9.94136 226.8C10.9694 215.131 16.04 204.007 16.24 192.295C16.5987 171.423 1.64401 150.092 10.1107 131.011C10.592 135.677 12.336 140.207 15.1067 143.992C16.3654 135.533 16.564 126.92 15.7133 118.411C15.48 116.084 18.5707 115.089 19.7133 117.129C25.252 109.4 25.724 99.0667 24.0387 89.708C22.3534 80.3507 18.76 71.4307 16.8493 62.1173C12.668 41.74 16.7107 20.6787 20.7493 0.273346C26.2693 13.5853 32.8747 26.8893 32.3147 41.2893C32.0773 47.3693 30.7334 53.3693 30.556 59.452C29.848 83.7453 47.2173 104.331 55.9813 127C71.5027 167.149 59.5147 212.732 67.8547 254.961C73.0267 281.152 85.8653 307.113 99.9213 329.811C105.02 316.716 103.456 301.941 99.636 288.419C95.8174 274.896 90.4787 261.613 89.528 247.593C88.9507 239.091 90.7093 229.331 97.888 224.737" fill="#19292C"/>
<path d="M117.531 309.023C128.143 317.512 136.788 328.675 140.885 341.768C143.011 348.565 144.072 355.685 143.725 362.804C143.38 369.889 140.075 377.471 141.625 384.463C142.327 387.629 146.081 388.709 148.695 387.339C156.232 383.384 158.377 372.78 159.275 365.031C160.343 355.807 159.519 346.264 156.329 337.509C150.472 321.427 139.063 308.793 124.575 299.893C119.092 296.525 112.285 304.825 117.531 309.023Z" fill="#224445"/>
<path d="M60.6707 298.001C57.8133 308.709 61.2787 320.943 66.356 330.473C71.0227 339.232 79.0573 350.559 90.036 350.281C91.856 350.235 93.6053 348.383 92.9293 346.484C89.928 338.059 82.2613 332.655 77.772 324.972C72.7547 316.384 71.348 307.439 68.868 298.001C67.8013 293.947 61.7493 293.963 60.6707 298.001Z" fill="#224445"/>
<path d="M117.552 354.051C119.115 363.06 119.249 372.396 116.675 381.251C114.52 388.659 110.069 394.185 106.573 400.812C105.177 403.457 107.488 406.8 110.525 405.953C119.5 403.452 125.432 393.904 127.795 385.401C130.903 374.213 129.095 362.711 125.749 351.792C124.121 346.479 116.631 348.732 117.552 354.051Z" fill="#224445"/>
<path d="M37.0014 128.396C42.4707 139.771 46.2227 152.564 47.168 165.175C47.6067 171.013 47.6027 176.94 47.1014 182.775C46.588 188.735 44.148 195.199 44.8707 201.132C45.228 204.069 49.1827 206.889 51.592 203.917C59.4667 194.201 58.656 175.797 57.2334 164.077C55.5067 149.851 50.9054 136.844 43.0454 124.863C40.5547 121.065 35.056 124.349 37.0014 128.396Z" fill="#224445"/>
<path d="M31.7014 226.925C28.9894 243.876 27.1454 269.869 41.3707 282.745C44.0227 285.145 47.72 282.753 47.1174 279.4C45.6094 271.023 40.9027 263.036 38.6227 254.771C36.164 245.861 35.1054 236.721 36.1214 227.524C36.3974 225.027 32.1027 224.421 31.7014 226.925Z" fill="#224445"/>
<path d="M183.601 393.857C182.276 403.425 184.189 412.576 190.107 420.349C194.903 426.651 204.7 435.303 213.057 430.609C215.088 429.469 215.764 426.697 214.604 424.709C211.573 419.517 204.729 417.819 200.689 413.375C196.153 408.386 193.755 401.957 193.913 395.253C194.049 389.499 184.427 387.892 183.601 393.857Z" fill="#224445"/>
<path d="M20.5694 373.552C18.4494 382.923 18.032 392.109 20.304 401.512C22.1574 409.176 25.5747 420.349 34.2307 422.322C36.552 422.853 38.2534 421.291 38.5027 419.069C39.3107 411.873 33.6054 405.116 31.484 398.429C29.0534 390.768 27.9227 382.636 28.4254 374.615C28.7067 370.127 21.5614 369.16 20.5694 373.552Z" fill="#161F21"/>
<path d="M26.2494 304.419C28.1987 312.992 29.02 321.823 28.2427 330.596C27.564 338.267 23.552 346.677 25.5867 354.28C26.2507 356.759 29.4067 358.203 31.6467 356.745C39.4334 351.684 40.496 340.297 40.948 331.755C41.4934 321.432 39.7307 311.315 35.7707 301.793C33.392 296.071 24.7987 298.039 26.2494 304.419Z" fill="#161F21"/>
<path d="M50.3627 390.717C52.4454 401.208 56.0454 410.676 62.632 419.209C68 426.163 76.6107 435.855 86.1014 436.008C89.4734 436.062 91.764 432.129 89.988 429.236C85.812 422.433 77.1347 418.233 71.8107 412.127C65.9094 405.356 60.848 397.171 58.1987 388.557C56.648 383.52 49.3507 385.616 50.3627 390.717Z" fill="#161F21"/>
<path d="M25.8454 134.219C26.3187 142.775 28.0107 151.183 28.6734 159.731C29.316 168.017 28.6907 176.413 31.4707 184.365C32.668 187.791 37.644 188.971 39.5814 185.425C44.1254 177.105 43.788 167.703 42.8947 158.499C41.976 149.043 40.3147 139.981 35.9774 131.473C33.5547 126.721 25.5494 128.895 25.8454 134.219Z" fill="#161F21"/>
<path d="M144.98 399.625C143.38 408.069 145.171 416.241 149.824 423.483C153.928 429.868 160.72 437.704 168.248 439.81C171.971 440.853 174.525 436.832 172.976 433.66C170.381 428.347 164.649 424.767 160.78 420.355C155.884 414.772 152.913 408.347 153.696 400.804C154.209 395.861 145.909 394.72 144.98 399.625Z" fill="#161F21"/>
</svg>
